<svg viewBox="0 0 432 613" xmlns="http://www.w3.org/2000/svg"><g fill="#f00" fill-rule="evenodd"><path d="m186 62.01v-14.725c6.12-3.623 15.15-12.313 15.15-22.485 0-13.415-10.875-24.303-24.296-24.303-13.415 0-24.315 10.887-24.315 24.303-.006 10.171 8.984 18.862 15.1 22.485v14.725c-67.32 4.731-122.68 60.888-122.68 134.33h263.81c-.006-73.44-55.45-129.6-122.77-134.33"/><path d="m314.52 542.29v-59.58c61.2 0 117.43-52.681 117.43-117.44 0-64.759-56.23-117.43-117.43-117.43v-14.976c0-13.464-11.787-24.29-25.25-24.29h-274.59c-13.464 0-18.14 8.911-10.392 19.921l21.16 30.631c7.754 11.02 13.666 30.992 13.666 44.46v238.7c0 1.561 1.04 2.889 1.322 2.889h-.465l-12.35 67.32h298.65l-12.534-67.32h-.465c.287-.001 1.242-1.329 1.242-2.89m0-263.85c48.96 0 86.83 38.954 86.83 86.83 0 47.883-37.871 86.84-86.83 86.84v-173.67m-18.36 263.85c0 1.824-1.665 2.889-2.98 2.889h-232.63c-1.316 0-3.066-1.065-3.066-2.889v-238.7c0-17.271-7.07-40.851-17.01-54.97l-14.89-21.677h263.69c3.317 0 6.891 2.613 6.891 5.93v309.42"/><path d="m69.84 332.83h214.03v199.1h-214.03v-199.1"/></g></svg>