<svg viewBox="0 0 613 613" xmlns="http://www.w3.org/2000/svg"><g fill="none" fill-rule="evenodd"><path d="m600.25 166.25h-158.11c7.727-2.882 15.224-5.776 22.261-8.542 45.875-18.07 78.999-31.13 130.15-5.559 6.299 3.162 13.961.587 17.11-5.699 3.149-6.298.599-13.961-5.699-17.11-60.818-30.409-102.15-14.573-149.71 4.169 11.07-14.663 16.499-30.12 16.499-43.758 0-46.36-9.269-89.25-76.5-89.25-41.68 0-72.917 66.47-89.25 115.5-16.319-49.05-47.556-115.5-89.25-115.5-67.23 0-76.5 42.891-76.5 89.25 0 13.655 5.431 29.09 16.511 43.771-47.545-18.743-88.89-34.578-149.7-4.182-6.299 3.149-8.849 10.812-5.699 17.11 3.15 6.298 10.799 8.861 17.11 5.699 51.17-25.589 84.3-12.52 130.15 5.559 7.03 2.767 14.509 5.661 22.262 8.542h-158.14c-7.04 0-12.75 5.712-12.75 12.75v127.5c0 7.04 5.712 12.75 12.75 12.75h25.5v280.5c0 7.05 5.712 12.75 12.75 12.75h510c7.02 0 12.75-5.699 12.75-12.75v-280.5h25.5c7.02 0 12.75-5.699 12.75-12.75v-127.5c0-7.03-5.725-12.75-12.75-12.75m-255 25.5v102h-76.5v-102h76.5m-280.5 183.78l56.28-56.28h40.443l-96.72 96.72v-40.442m0 76.5l132.78-132.78h40.443l-173.22 173.22v-40.442m0 76.5l178.5-178.5v40.443l-178.5 178.5v-40.443m178.5-102v27.693l-132.79 132.78h-27.68l160.47-160.47m0 63.75v40.443l-56.29 56.28h-40.443l96.73-96.72m153-464.28c39.563 0 51 14.306 51 63.75 0 30.23-43.35 71.37-124.96 76-.803.025-1.67.051-2.486.076 1.964-22.12 40.519-139.83 76.45-139.83m-178.5 0c36.06 0 74.75 118.5 76.46 139.84-.867-.025-1.76-.051-2.626-.089-81.54-4.679-124.83-45.785-124.83-76-.001-49.43 11.423-63.75 50.999-63.75m-191.25 165.75h216.75v102h-191.25-25.5v-102m58.46 127.5l-20.21 20.221v-20.221h20.21m138.07 267.75l20.222-20.221v20.221h-20.222m45.722 0v-267.75h76.5v267.75h-76.5m280.5-43.529l-43.529 43.529h-40.443l83.972-83.971v40.442m0-76.5l-120.03 120.03h-40.443l160.47-160.47v40.442m0-76.5l-178.5 178.5v-40.443l178.5-178.5v40.443m-178.5 102v-40.443l132.78-132.78h40.443l-173.22 173.22m0-76.5v-40.443l56.28-56.28h40.443l-96.72 96.72m0-76.5v-20.221h20.221l-20.221 20.221m171.03 247.53l7.471-7.471v7.471h-7.471m45.721-293.25h-25.5-191.25v-102h216.75v102" fill="#f00"/></g></svg>