<svg viewBox="0 0 366 351" xmlns="http://www.w3.org/2000/svg"><g fill="#f00" fill-rule="evenodd"><path d="m276.85 237.31h-187.71c-4.829 0-8.752 3.929-8.752 8.764 0 4.829 3.923 8.752 8.752 8.752h187.71c4.841 0 8.758-3.923 8.758-8.752 0-4.841-3.917-8.764-8.758-8.764"/><path d="m356.47 281.77h-13.28v-24.26c0-4.841-3.923-8.764-8.752-8.764-5.269 0-9.553-4.278-9.553-9.547v-54.15c0-44.774-36.426-81.21-81.21-81.21h-51.922v-28.13c16.689-3.966 29.14-18.99 29.14-36.867 0-20.894-16.995-37.901-37.895-37.901-20.9 0-37.895 17.01-37.895 37.901 0 17.883 12.454 32.901 29.14 36.867v28.13h-51.934c-44.768 0-81.2 36.432-81.2 81.21v54.15c0 5.263-4.29 9.547-9.553 9.547-4.841 0-8.758 3.923-8.758 8.764v24.26h-13.28c-4.835 0-8.758 3.917-8.758 8.764v50.759c0 4.835 3.923 8.764 8.758 8.764h346.94c4.841 0 8.764-3.929 8.764-8.764v-50.759c-.001-4.848-3.918-8.764-8.759-8.764h.007m-193.87-242.91c0-11.242 9.143-20.38 20.386-20.38 11.242 0 20.386 9.137 20.386 20.38 0 11.23-9.143 20.38-20.386 20.38-11.242-.001-20.386-9.15-20.386-20.38m-122.29 225.96c10.637-3.648 18.299-13.746 18.299-25.606v-54.15c0-35.12 28.568-63.697 63.69-63.697h121.37c35.12 0 63.69 28.58 63.69 63.697v54.15c0 11.861 7.668 21.959 18.305 25.606v16.958h-285.35v-16.958h-.004m307.38 67.72h-329.43v-33.26h13.28 302.88 13.268v33.26h.002"/></g></svg>