<?xml version="1.0" encoding="iso-8859-1"?>
<!-- Generator: Adobe Illustrator 19.0.0, SVG Export Plug-In . SVG Version: 6.00 Build 0)  -->
<svg version="1.1" id="Layer_1" xmlns="http://www.w3.org/2000/svg" xmlns:xlink="http://www.w3.org/1999/xlink" x="0px" y="0px"
	 viewBox="0 0 612 792" style="enable-background:new 0 0 612 792;" xml:space="preserve">
<path d="M1415.12,1563.256v-14.076c0-5.508-4.896-10.404-10.404-10.404h-79.56c-5.508,0-10.404,4.896-10.404,10.404v14.076H1415.12z
	"/>
<g>
	<path d="M1437.764,1786.636c-5.508,0-10.404-4.896-10.404-10.404v-172.584c0-13.464-11.016-24.48-24.48-24.48h-293.76
		c-13.464,0-24.48,11.016-24.48,24.48v172.584c0,5.508-4.896,10.404-10.404,10.404s-10.404-4.896-10.404-10.404v-172.584
		c0-25.092,20.196-45.288,45.288-45.288h293.76c25.092,0,45.288,20.196,45.288,45.288v172.584
		C1448.168,1781.74,1443.272,1786.636,1437.764,1786.636z"/>
</g>
<g>
	<path d="M1470.2,1851.508L1470.2,1851.508h-428.4c-3.672,0-6.732-1.836-8.568-4.896c-1.836-3.06-1.836-6.732-0.612-9.792
		l32.436-64.872c1.836-3.672,5.508-5.508,9.18-5.508h363.528c3.672,0,7.344,2.448,9.18,5.508l31.824,63.648
		c1.224,1.836,1.836,3.672,1.836,6.12C1480.604,1846.612,1475.708,1851.508,1470.2,1851.508z M1058.936,1830.7h394.74
		l-22.032-44.064h-350.676L1058.936,1830.7z"/>
</g>
<g>
	<path d="M1256,1752.364c-44.064,0-79.56-36.108-79.56-79.56c0-43.452,36.108-79.56,79.56-79.56c43.452,0,79.56,36.108,79.56,79.56
		C1335.56,1716.255,1300.064,1752.364,1256,1752.364z M1256,1613.44c-32.436,0-59.364,26.316-59.364,59.364
		c0,33.047,26.316,59.364,59.364,59.364s59.364-26.316,59.364-59.364C1315.364,1639.756,1288.436,1613.44,1256,1613.44z"/>
</g>
<g>
	<path d="M1293.944,1682.596c-5.508,0-10.404-4.896-10.404-10.404c0-15.3-12.24-28.152-28.152-28.152
		c-5.508,0-10.404-4.896-10.404-10.404c0-5.507,4.896-10.404,10.404-10.404c26.928,0,48.348,22.032,48.348,48.348
		C1304.348,1678.312,1300.064,1682.596,1293.944,1682.596z"/>
</g>
<path d="M1399.208,1661.788h-39.78c-6.12,0-11.016-4.896-11.016-11.016v-36.72c0-6.12,4.896-11.016,11.016-11.016h39.78
	c6.12,0,11.016,4.896,11.016,11.016v36.72C1410.836,1656.892,1405.94,1661.788,1399.208,1661.788z"/>
<circle cx="1368.608" cy="1698.508" r="20.196"/>
<circle cx="1129.928" cy="1698.508" r="32.436"/>
<path d="M1150.736,1659.952h-41.616c-5.508,0-9.792-4.284-9.792-9.792v-3.06c0-5.508,4.284-9.792,9.792-9.792h41.616
	c5.508,0,9.792,4.284,9.792,9.792v3.06C1160.528,1655.668,1156.244,1659.952,1150.736,1659.952z"/>
<path d="M1470.2,1830.7h-428.4c-5.508,0-10.404,4.896-10.404,10.404v104.652c0,5.508,4.896,10.404,10.404,10.404h72.828l9.792-55.08
	h269.892l9.792,55.08h65.484c5.508,0,10.404-4.896,10.404-10.404v-104.652C1480.604,1834.984,1475.708,1830.7,1470.2,1830.7z"/>
<path d="M1410.836,2000.224L1410.836,2000.224h-302.328c-3.06,0-6.12-1.224-7.956-3.672c-1.836-2.448-3.06-5.508-2.448-8.568
	l15.912-89.352c0.612-4.896,4.896-8.568,10.404-8.568h269.892c4.896,0,9.18,3.672,10.404,8.568l15.912,87.516
	c0.612,1.224,0.612,2.448,0.612,3.672C1421.24,1995.328,1416.344,2000.224,1410.836,2000.224z M1120.748,1979.416h277.236
	l-12.24-68.544H1133.6L1120.748,1979.416z"/>
</svg>
