<svg viewBox="0 0 392 613" xmlns="http://www.w3.org/2000/svg"><g fill="#f00" fill-rule="evenodd"><path d="m196 452.16c-73.61 0-133.49-61.799-133.49-137.75v-176.15c0-75.952 59.887-137.75 133.49-137.75 73.6 0 133.5 61.799 133.5 137.75v176.15c0 75.952-59.899 137.75-133.5 137.75m0-426.16c-59.54 0-107.99 50.36-107.99 112.25v176.15c0 61.889 48.45 112.25 107.99 112.25 59.56 0 108-50.35 108-112.25v-176.15c0-61.889-48.45-112.25-108-112.25"/><path d="m196 515.75c-107.69 0-195.29-90.5-195.29-201.73v-95.84c0-7.04 5.712-12.75 12.75-12.75 7.04 0 12.75 5.712 12.75 12.75v95.84c0 97.18 76.17 176.23 169.79 176.23 93.62 0 169.78-79.05 169.78-176.23v-95.84c0-7.04 5.699-12.75 12.75-12.75 7.05 0 12.75 5.712 12.75 12.75v95.84c0 111.23-87.61 201.73-195.28 201.73"/><path d="m196 612.5c-7.04 0-12.75-5.699-12.75-12.75v-96.75c0-7.05 5.712-12.75 12.75-12.75 7.05 0 12.75 5.699 12.75 12.75v96.75c0 7.05-5.699 12.75-12.75 12.75"/><path d="m276.41 612.5h-160.81c-7.04 0-12.75-5.699-12.75-12.75 0-7.05 5.712-12.75 12.75-12.75h160.82c7.05 0 12.75 5.699 12.75 12.75 0 7.05-5.713 12.75-12.751 12.75"/><path d="m196 167.04c-7.04 0-12.75-5.712-12.75-12.75v-140.66c0-7.04 5.712-12.75 12.75-12.75 7.05 0 12.75 5.712 12.75 12.75v140.66c0 7.04-5.699 12.75-12.75 12.75"/><path d="m138.94 167.04c-7.04 0-12.75-5.712-12.75-12.75v-122c0-7.04 5.712-12.75 12.75-12.75 7.04 0 12.75 5.712 12.75 12.75v122c0 7.04-5.712 12.75-12.75 12.75"/><path d="m251.69 167.04c-7.05 0-12.75-5.712-12.75-12.75v-122c0-7.04 5.699-12.75 12.75-12.75 7.05 0 12.75 5.712 12.75 12.75v122c0 7.04-5.699 12.75-12.75 12.75"/></g></svg>